<svg xmlns="http://www.w3.org/2000/svg" width="17.82" height="16.834" viewBox="0 0 17.82 16.834">
  <path id="Path_430" data-name="Path 430" d="M2,8.3a6.282,6.282,0,0,0,3.744,5.652,7.006,7.006,0,0,0,7.025-.68l5.673,5.354a.871.871,0,0,0,1.133-.041.756.756,0,0,0,.044-1.07l-5.673-5.354a6.022,6.022,0,0,0,.219-7.469,6.894,6.894,0,0,0-7.489-2.42A6.354,6.354,0,0,0,2,8.3ZM8.679,3.572A4.875,4.875,0,0,1,13.688,8.3a4.875,4.875,0,0,1-5.009,4.728A4.875,4.875,0,0,1,3.67,8.3,4.875,4.875,0,0,1,8.679,3.572Z" transform="translate(-2 -1.982)" fill="#989898"/>
</svg>
